<svg xmlns="http://www.w3.org/2000/svg" width="977" height="398" viewBox="0 0 754 307" shape-rendering="geometricPrecision" text-rendering="geometricPrecision" image-rendering="optimizeQuality" fill-rule="evenodd" clip-rule="evenodd"><defs><style>.fil0{fill:#ddc75b}</style></defs><path class="fil0" d="M229 180c-1-1-2-1-2-2-5-4-11-6-19-6-7 0-13 1-18 4s-9 7-13 12h-49l29-110h27L159 0l-38 115H0l98 72-37 115 62-45 50-36 16-12 26-19 5-3 9-7zm-18-65h-18l-11 42c6-6 14-10 22-13 9-4 17-5 27-5 7 0 14 1 21 3 7 1 12 4 17 8h1l48-35H211zm526 116v3h-4v11h-3v-11h-4v-3h11zm-429-8l3-20h29l-3 20h-29zm236 29h10l-4 29c-1 1-1 3-1 4v4c0 5 2 9 5 12 4 3 9 5 16 5 3 0 5 0 8-1h8l1-7 4 4c4 3 10 5 17 5 5 0 9-1 13-2 4-2 8-4 12-7l1 7h53l4-28c2-8 3-13 6-16 2-3 6-4 11-4h7l4-27s0-1-1-1h-3c-4 0-8 1-11 3-4 2-7 6-10 10l2-11h-26l-10 68v-3-3c0-1 0-2 1-4l4-26c0-2 0-4 1-6v-5c0-7-3-13-9-17s-15-6-26-6c-12 0-21 2-28 6-3 2-5 4-7 7l1-11h-13l4-22h-28l-3 22h-10l-2 10c-1-3-3-4-6-6-6-4-14-6-25-6s-20 2-26 6-9 9-9 16c-2-5-4-9-8-12-6-7-16-10-29-10s-24 4-31 12l-3 3 6-13h-29l-19 47-6-47h-68c2-10 14-8 14-8v-2l3-18h-21c-7 0-13 3-17 9-2 2-3 5-4 8-1 1-2 11-2 11h-10l-3 17h10l-8 57h28l8-57h15l-8 57h28l10-66 12 66h31l23-46c-2 4-2 9-2 14 0 10 4 19 11 25s17 9 29 9c10 0 19-2 26-6 4-2 7-6 10-11 1 4 4 7 8 10 6 5 16 7 27 7 12 0 21-2 27-7 6-4 10-11 10-19 0-3-1-7-3-9-2-3-4-6-8-8-2-1-7-3-13-5-3-1-5-1-6-2-4-1-7-2-9-3-1-1-2-3-2-4 0-2 1-3 2-4s3-2 6-2c2 0 5 1 6 2 2 2 3 3 3 6h21zm207-7v-8-4c-1 1-1 3-2 4l-2 7h-3l-2-7c0-1-1-3-1-4v4l-1 8h-2l1-14h4l2 7c0 1 1 2 1 3 0-1 1-2 1-3l2-7h4l1 14h-3zm-297 15c0-4-1-8-3-10s-5-4-9-4c-3 0-6 2-9 4-2 2-3 6-4 10h25zm-7 28c5-2 7-6 7-8h46c0 3 1 6 3 8 1 2 4 3 7 3 2 0 4-1 6-2s3-3 3-5c0-1-1-3-2-4-2-1-4-2-7-3l-1-1c-15-5-24-11-28-17v15h-53v2c0 4 1 7 3 10 2 2 5 3 9 3 3 0 5 0 7-1zm145-20c6-4 15-7 28-8 1-1 2-1 4-1 10-1 14-3 14-7 0-2-1-3-2-4-2-1-4-2-7-2s-6 1-7 2c-2 1-3 3-3 6h-27l-11-1-3 23v2c0 2 0 4 1 4 1 1 3 1 5 2 1-7 3-13 8-16zm32 7c-7 2-11 5-11 9 0 1 0 3 2 4 1 1 3 2 5 2 5 0 8-2 11-5s4-7 5-13c-3 1-7 2-12 3z" id="Layer_x0020_1"/></svg>